<svg width="84" height="16" viewBox="0 0 84 16" fill="none" xmlns="http://www.w3.org/2000/svg">
<path d="M7.49621 2.78269C7.65053 2.33874 7.72768 2.11677 7.84178 2.05525C7.94052 2.00201 8.05943 2.00201 8.15818 2.05525C8.27227 2.11677 8.34943 2.33874 8.50374 2.78269L9.52392 5.71761C9.56784 5.84397 9.5898 5.90714 9.62938 5.95419C9.66433 5.99575 9.70891 6.02814 9.75924 6.04854C9.81622 6.07164 9.88309 6.073 10.0168 6.07573L13.1234 6.13903C13.5933 6.14861 13.8282 6.1534 13.922 6.2429C14.0031 6.32036 14.0399 6.43344 14.0198 6.54381C13.9965 6.67133 13.8092 6.81331 13.4347 7.09726L10.9587 8.97445C10.8521 9.05526 10.7988 9.09567 10.7663 9.14784C10.7375 9.19393 10.7205 9.24634 10.7167 9.30051C10.7123 9.36183 10.7317 9.42585 10.7704 9.55389L11.6702 12.5279C11.8063 12.9778 11.8743 13.2027 11.8182 13.3196C11.7696 13.4207 11.6734 13.4906 11.5622 13.5055C11.4337 13.5228 11.2408 13.3886 10.8551 13.1202L8.30461 11.3454C8.19481 11.269 8.13991 11.2308 8.08024 11.216C8.02753 11.2029 7.97242 11.2029 7.91971 11.216C7.86005 11.2308 7.80515 11.269 7.69535 11.3454L5.1449 13.1202C4.75911 13.3886 4.56622 13.5228 4.43775 13.5055C4.32657 13.4906 4.23037 13.4207 4.18178 13.3196C4.12564 13.2027 4.19369 12.9778 4.32979 12.5279L5.22955 9.55389C5.26829 9.42585 5.28765 9.36183 5.28329 9.30051C5.27944 9.24634 5.26241 9.19393 5.23369 9.14784C5.20117 9.09567 5.14787 9.05526 5.04128 8.97445L2.56525 7.09726C2.19072 6.81331 2.00345 6.67133 1.9802 6.54381C1.96008 6.43344 1.99683 6.32036 2.07798 6.2429C2.17174 6.1534 2.40669 6.14861 2.87659 6.13903L5.98313 6.07573C6.11687 6.073 6.18374 6.07164 6.24071 6.04854C6.29104 6.02814 6.33562 5.99575 6.37058 5.95419C6.41015 5.90714 6.43211 5.84397 6.47603 5.71761L7.49621 2.78269Z" fill="#EBE100" stroke="#EBE100" stroke-width="1.33333" stroke-linecap="round" stroke-linejoin="round"/>
<path d="M24.4962 2.78269C24.6505 2.33874 24.7277 2.11677 24.8418 2.05525C24.9405 2.00201 25.0594 2.00201 25.1582 2.05525C25.2723 2.11677 25.3494 2.33874 25.5037 2.78269L26.5239 5.71761C26.5678 5.84397 26.5898 5.90714 26.6294 5.95419C26.6643 5.99575 26.7089 6.02814 26.7592 6.04854C26.8162 6.07164 26.8831 6.073 27.0168 6.07573L30.1234 6.13903C30.5933 6.14861 30.8282 6.1534 30.922 6.2429C31.0031 6.32036 31.0399 6.43344 31.0198 6.54381C30.9965 6.67133 30.8092 6.81331 30.4347 7.09726L27.9587 8.97445C27.8521 9.05526 27.7988 9.09567 27.7663 9.14784C27.7375 9.19393 27.7205 9.24634 27.7167 9.30051C27.7123 9.36183 27.7317 9.42585 27.7704 9.55389L28.6702 12.5279C28.8063 12.9778 28.8743 13.2027 28.8182 13.3196C28.7696 13.4207 28.6734 13.4906 28.5622 13.5055C28.4337 13.5228 28.2408 13.3886 27.8551 13.1202L25.3046 11.3454C25.1948 11.269 25.1399 11.2308 25.0802 11.216C25.0275 11.2029 24.9724 11.2029 24.9197 11.216C24.86 11.2308 24.8051 11.269 24.6953 11.3454L22.1449 13.1202C21.7591 13.3886 21.5662 13.5228 21.4378 13.5055C21.3266 13.4906 21.2304 13.4207 21.1818 13.3196C21.1256 13.2027 21.1937 12.9778 21.3298 12.5279L22.2296 9.55389C22.2683 9.42585 22.2877 9.36183 22.2833 9.30051C22.2794 9.24634 22.2624 9.19393 22.2337 9.14784C22.2012 9.09567 22.1479 9.05526 22.0413 8.97445L19.5653 7.09726C19.1907 6.81331 19.0035 6.67133 18.9802 6.54381C18.9601 6.43344 18.9968 6.32036 19.078 6.2429C19.1717 6.1534 19.4067 6.14861 19.8766 6.13903L22.9831 6.07573C23.1169 6.073 23.1837 6.07164 23.2407 6.04854C23.291 6.02814 23.3356 5.99575 23.3706 5.95419C23.4102 5.90714 23.4321 5.84397 23.476 5.71761L24.4962 2.78269Z" fill="#EBE100" stroke="#EBE100" stroke-width="1.33333" stroke-linecap="round" stroke-linejoin="round"/>
<path d="M41.4962 2.78269C41.6505 2.33874 41.7277 2.11677 41.8418 2.05525C41.9405 2.00201 42.0594 2.00201 42.1582 2.05525C42.2723 2.11677 42.3494 2.33874 42.5037 2.78269L43.5239 5.71761C43.5678 5.84397 43.5898 5.90714 43.6294 5.95419C43.6643 5.99575 43.7089 6.02814 43.7592 6.04854C43.8162 6.07164 43.8831 6.073 44.0168 6.07573L47.1234 6.13903C47.5933 6.14861 47.8282 6.1534 47.922 6.2429C48.0031 6.32036 48.0399 6.43344 48.0198 6.54381C47.9965 6.67133 47.8092 6.81331 47.4347 7.09726L44.9587 8.97445C44.8521 9.05526 44.7988 9.09567 44.7663 9.14784C44.7375 9.19393 44.7205 9.24634 44.7167 9.30051C44.7123 9.36183 44.7317 9.42585 44.7704 9.55389L45.6702 12.5279C45.8063 12.9778 45.8743 13.2027 45.8182 13.3196C45.7696 13.4207 45.6734 13.4906 45.5622 13.5055C45.4337 13.5228 45.2408 13.3886 44.8551 13.1202L42.3046 11.3454C42.1948 11.269 42.1399 11.2308 42.0802 11.216C42.0275 11.2029 41.9724 11.2029 41.9197 11.216C41.86 11.2308 41.8051 11.269 41.6953 11.3454L39.1449 13.1202C38.7591 13.3886 38.5662 13.5228 38.4378 13.5055C38.3266 13.4906 38.2304 13.4207 38.1818 13.3196C38.1256 13.2027 38.1937 12.9778 38.3298 12.5279L39.2296 9.55389C39.2683 9.42585 39.2877 9.36183 39.2833 9.30051C39.2794 9.24634 39.2624 9.19393 39.2337 9.14784C39.2012 9.09567 39.1479 9.05526 39.0413 8.97445L36.5653 7.09726C36.1907 6.81331 36.0035 6.67133 35.9802 6.54381C35.9601 6.43344 35.9968 6.32036 36.078 6.2429C36.1717 6.1534 36.4067 6.14861 36.8766 6.13903L39.9831 6.07573C40.1169 6.073 40.1837 6.07164 40.2407 6.04854C40.291 6.02814 40.3356 5.99575 40.3706 5.95419C40.4102 5.90714 40.4321 5.84397 40.476 5.71761L41.4962 2.78269Z" fill="#EBE100" stroke="#EBE100" stroke-width="1.33333" stroke-linecap="round" stroke-linejoin="round"/>
<path d="M58.4962 2.78269C58.6505 2.33874 58.7277 2.11677 58.8418 2.05525C58.9405 2.00201 59.0594 2.00201 59.1582 2.05525C59.2723 2.11677 59.3494 2.33874 59.5037 2.78269L60.5239 5.71761C60.5678 5.84397 60.5898 5.90714 60.6294 5.95419C60.6643 5.99575 60.7089 6.02814 60.7592 6.04854C60.8162 6.07164 60.8831 6.073 61.0168 6.07573L64.1234 6.13903C64.5933 6.14861 64.8282 6.1534 64.922 6.2429C65.0031 6.32036 65.0399 6.43344 65.0198 6.54381C64.9965 6.67133 64.8092 6.81331 64.4347 7.09726L61.9587 8.97445C61.8521 9.05526 61.7988 9.09567 61.7663 9.14784C61.7375 9.19393 61.7205 9.24634 61.7167 9.30051C61.7123 9.36183 61.7317 9.42585 61.7704 9.55389L62.6702 12.5279C62.8063 12.9778 62.8743 13.2027 62.8182 13.3196C62.7696 13.4207 62.6734 13.4906 62.5622 13.5055C62.4337 13.5228 62.2408 13.3886 61.8551 13.1202L59.3046 11.3454C59.1948 11.269 59.1399 11.2308 59.0802 11.216C59.0275 11.2029 58.9724 11.2029 58.9197 11.216C58.86 11.2308 58.8051 11.269 58.6953 11.3454L56.1449 13.1202C55.7591 13.3886 55.5662 13.5228 55.4378 13.5055C55.3266 13.4906 55.2304 13.4207 55.1818 13.3196C55.1256 13.2027 55.1937 12.9778 55.3298 12.5279L56.2296 9.55389C56.2683 9.42585 56.2877 9.36183 56.2833 9.30051C56.2794 9.24634 56.2624 9.19393 56.2337 9.14784C56.2012 9.09567 56.1479 9.05526 56.0413 8.97445L53.5653 7.09726C53.1907 6.81331 53.0035 6.67133 52.9802 6.54381C52.9601 6.43344 52.9968 6.32036 53.078 6.2429C53.1717 6.1534 53.4067 6.14861 53.8766 6.13903L56.9831 6.07573C57.1169 6.073 57.1837 6.07164 57.2407 6.04854C57.291 6.02814 57.3356 5.99575 57.3706 5.95419C57.4102 5.90714 57.4321 5.84397 57.476 5.71761L58.4962 2.78269Z" fill="#EBE100" stroke="#EBE100" stroke-width="1.33333" stroke-linecap="round" stroke-linejoin="round"/>
<path d="M75.4962 2.78269C75.6505 2.33874 75.7277 2.11677 75.8418 2.05525C75.9405 2.00201 76.0594 2.00201 76.1582 2.05525C76.2723 2.11677 76.3494 2.33874 76.5037 2.78269L77.5239 5.71761C77.5678 5.84397 77.5898 5.90714 77.6294 5.95419C77.6643 5.99575 77.7089 6.02814 77.7592 6.04854C77.8162 6.07164 77.8831 6.073 78.0168 6.07573L81.1234 6.13903C81.5933 6.14861 81.8282 6.1534 81.922 6.2429C82.0031 6.32036 82.0399 6.43344 82.0198 6.54381C81.9965 6.67133 81.8092 6.81331 81.4347 7.09726L78.9587 8.97445C78.8521 9.05526 78.7988 9.09567 78.7663 9.14784C78.7375 9.19393 78.7205 9.24634 78.7167 9.30051C78.7123 9.36183 78.7317 9.42585 78.7704 9.55389L79.6702 12.5279C79.8063 12.9778 79.8743 13.2027 79.8182 13.3196C79.7696 13.4207 79.6734 13.4906 79.5622 13.5055C79.4337 13.5228 79.2408 13.3886 78.8551 13.1202L76.3046 11.3454C76.1948 11.269 76.1399 11.2308 76.0802 11.216C76.0275 11.2029 75.9724 11.2029 75.9197 11.216C75.86 11.2308 75.8051 11.269 75.6953 11.3454L73.1449 13.1202C72.7591 13.3886 72.5662 13.5228 72.4378 13.5055C72.3266 13.4906 72.2304 13.4207 72.1818 13.3196C72.1256 13.2027 72.1937 12.9778 72.3298 12.5279L73.2296 9.55389C73.2683 9.42585 73.2877 9.36183 73.2833 9.30051C73.2794 9.24634 73.2624 9.19393 73.2337 9.14784C73.2012 9.09567 73.1479 9.05526 73.0413 8.97445L70.5653 7.09726C70.1907 6.81331 70.0035 6.67133 69.9802 6.54381C69.9601 6.43344 69.9968 6.32036 70.078 6.2429C70.1717 6.1534 70.4067 6.14861 70.8766 6.13903L73.9831 6.07573C74.1169 6.073 74.1837 6.07164 74.2407 6.04854C74.291 6.02814 74.3356 5.99575 74.3706 5.95419C74.4102 5.90714 74.4321 5.84397 74.476 5.71761L75.4962 2.78269Z" fill="#EBE100" stroke="#EBE100" stroke-width="1.33333" stroke-linecap="round" stroke-linejoin="round"/>
</svg>
